<svg xmlns="http://www.w3.org/2000/svg" width="512" height="512" viewBox="0 0 512 512">
  <defs>
    <linearGradient id="sky" x1="0" y1="0" x2="0" y2="1">
      <stop offset="0" stop-color="#8fe3d6"/>
      <stop offset="0.55" stop-color="#bff0e4"/>
      <stop offset="1" stop-color="#fff5e1"/>
    </linearGradient>
  </defs>
  <rect width="512" height="512" rx="112" fill="url(#sky)"/>
  <circle cx="360" cy="150" r="70" fill="#ffd166"/>
  <g stroke="#ffd166" stroke-width="14" stroke-linecap="round">
    <line x1="360" y1="40" x2="360" y2="18"/>
    <line x1="360" y1="282" x2="360" y2="260"/>
    <line x1="470" y1="150" x2="492" y2="150"/>
    <line x1="228" y1="150" x2="250" y2="150"/>
    <line x1="438" y1="72" x2="454" y2="56"/>
    <line x1="266" y1="228" x2="282" y2="212"/>
  </g>
  <path d="M0 360 q64 -34 128 0 t128 0 t128 0 t128 0 V512 H0 Z" fill="#12b3a0" opacity="0.85"/>
  <path d="M0 410 q64 -30 128 0 t128 0 t128 0 t128 0 V512 H0 Z" fill="#0d9587"/>
  <text x="256" y="330" font-family="Segoe UI, Arial, sans-serif" font-size="150" font-weight="800" text-anchor="middle" fill="#ff8a5c">€</text>
</svg>
